<?xml version="1.0" encoding="UTF-8" standalone="no"?>
<!-- Created with Inkscape (http://www.inkscape.org/) -->

<svg
   width="7.4861789mm"
   height="7.7483721mm"
   viewBox="0 0 7.4861789 7.7483721"
   version="1.1"
   id="svg1"
   xml:space="preserve"
   xmlns:xlink="http://www.w3.org/1999/xlink"
   xmlns="http://www.w3.org/2000/svg"
   xmlns:svg="http://www.w3.org/2000/svg"><defs
     id="defs1"><linearGradient
       id="swatch70"><stop
         style="stop-color:#d5c1ba;stop-opacity:1;"
         offset="0"
         id="stop70" /></linearGradient><linearGradient
       id="swatch2"><stop
         style="stop-color:#000000;stop-opacity:1;"
         offset="0"
         id="stop2" /></linearGradient><linearGradient
       xlink:href="#swatch70"
       id="linearGradient47"
       gradientUnits="userSpaceOnUse"
       x1="464.4436"
       y1="-53.548092"
       x2="532.70428"
       y2="-53.548092" /><linearGradient
       xlink:href="#swatch2"
       id="linearGradient42"
       gradientUnits="userSpaceOnUse"
       gradientTransform="matrix(0.83259321,0,0,0.83259321,-36.606736,-179.7817)"
       x1="90.322479"
       y1="32.139187"
       x2="118.64729"
       y2="32.139187" /><linearGradient
       xlink:href="#swatch2"
       id="linearGradient43"
       gradientUnits="userSpaceOnUse"
       gradientTransform="matrix(0.83259321,0,0,0.83259321,-36.390066,-187.79853)"
       x1="90.322479"
       y1="32.139187"
       x2="118.64729"
       y2="32.139187" /><linearGradient
       xlink:href="#swatch2"
       id="linearGradient44"
       gradientUnits="userSpaceOnUse"
       gradientTransform="matrix(0.83259321,0,0,0.83259321,-34.873366,-173.0649)"
       x1="90.322479"
       y1="32.139187"
       x2="118.64729"
       y2="32.139187" /><linearGradient
       xlink:href="#swatch2"
       id="linearGradient45"
       gradientUnits="userSpaceOnUse"
       gradientTransform="matrix(0.68440045,0,0,0.69676098,-19.606136,-160.95338)"
       x1="90.322479"
       y1="32.139187"
       x2="118.64729"
       y2="32.139187" /></defs><g
     id="layer1"
     transform="translate(-78.356233,-91.56078)"><g
       id="g24"
       transform="matrix(-0.10967053,0,0,0.10967053,88.373914,112.03875)"
       style="stroke-width:5.69889;stroke-dasharray:none"><path
         id="path10"
         style="display:inline;fill:url(#linearGradient47);stroke:#000000;stroke-width:5.69889;stroke-linecap:round;stroke-linejoin:round;stroke-dasharray:none;paint-order:stroke fill markers"
         d="m 497.7168,-86.017578 c -7.39641,0.324631 -14.63744,3.345748 -20.08181,8.360725 -4.34332,3.990587 -7.4723,9.242599 -9.07419,14.908564 -1.98883,7.006791 -1.64186,14.683006 1.11988,21.434993 2.3988,5.878751 6.56132,10.99202 11.73059,14.661571 1.87179,1.372928 3.79217,2.687842 5.81355,3.831613 2.08336,1.10312 4.43206,1.664107 6.78366,1.723857 2.7205,0.118855 5.43169,-0.230219 8.12589,-0.562587 2.33702,-0.329191 4.62859,-0.995781 6.76092,-2.010761 3.11332,-1.425995 5.95733,-3.448932 8.28762,-5.961406 1.55526,-1.604627 3.10223,-3.234152 4.37109,-5.08094 1.835,-2.543024 3.62499,-5.128866 5.11796,-7.891168 0.82004,-1.506559 1.58115,-3.057781 2.06361,-4.709235 0.82308,-2.707844 1.14163,-5.552274 1.11804,-8.376427 -0.06,-4.000639 -0.96702,-7.9852 -2.64916,-11.615828 -2.55501,-5.608926 -6.70134,-10.505835 -11.89684,-13.838212 -3.69486,-2.376879 -7.91485,-3.90905 -12.25793,-4.544341 -1.76451,-0.256544 -3.55019,-0.366624 -5.33288,-0.330418 z"
         transform="translate(-441.36082,-97.84886)" /><path
         style="fill:url(#linearGradient42);stroke:#000000;stroke-width:2.84944;stroke-linecap:round;stroke-linejoin:round;stroke-dasharray:none;paint-order:stroke fill markers"
         d="m 39.011444,-148.58108 11.70024,-4.98343 c 4.61556,-1.30943 5.30802,-1.57654 7.55394,-2.24395"
         id="path21" /><path
         style="fill:url(#linearGradient43);stroke:#000000;stroke-width:2.84944;stroke-linecap:round;stroke-linejoin:round;stroke-dasharray:none;paint-order:stroke fill markers"
         d="m 39.228114,-156.59791 10.50854,-5.41677 c 7.21839,-2.87113 4.14774,-1.35136 6.35343,-1.99462"
         id="path22" /><path
         style="fill:url(#linearGradient44);stroke:#000000;stroke-width:2.84944;stroke-linecap:round;stroke-linejoin:round;stroke-dasharray:none;paint-order:stroke fill markers"
         d="m 40.744814,-141.86428 6.51532,-3.64775 5.18803,-2.18163 c 7.21838,-2.87113 3.87301,-0.93875 6.0787,-1.58201"
         id="path23" /><path
         style="fill:url(#linearGradient45);stroke:#000000;stroke-width:2.84944;stroke-linecap:round;stroke-linejoin:round;stroke-dasharray:none;paint-order:stroke fill markers"
         d="m 42.552814,-134.84294 4.57495,-2.01169 5.4682,-1.70874 c 5.93359,-2.40272 2.99905,-0.35752 4.81214,-0.89584"
         id="path24" /></g></g></svg>
