<?xml version="1.0" encoding="UTF-8" standalone="no"?>
<!-- Created with Inkscape (http://www.inkscape.org/) -->

<svg
   width="10.585545mm"
   height="12.583228mm"
   viewBox="0 0 10.585545 12.583228"
   version="1.1"
   id="svg1"
   xml:space="preserve"
   sodipodi:docname="Unnamed document 1"
   xmlns:inkscape="http://www.inkscape.org/namespaces/inkscape"
   xmlns:sodipodi="http://sodipodi.sourceforge.net/DTD/sodipodi-0.dtd"
   xmlns:xlink="http://www.w3.org/1999/xlink"
   xmlns="http://www.w3.org/2000/svg"
   xmlns:svg="http://www.w3.org/2000/svg"><sodipodi:namedview
     id="namedview1"
     pagecolor="#505050"
     bordercolor="#eeeeee"
     borderopacity="1"
     inkscape:showpageshadow="0"
     inkscape:pageopacity="0"
     inkscape:pagecheckerboard="0"
     inkscape:deskcolor="#505050"
     inkscape:document-units="mm"><inkscape:page
       x="0"
       y="0"
       width="10.585545"
       height="12.583228"
       id="page2"
       margin="0"
       bleed="0" /></sodipodi:namedview><defs
     id="defs1"><linearGradient
       id="swatch26"><stop
         style="stop-color:#953535;stop-opacity:1;"
         offset="0"
         id="stop26" /></linearGradient><linearGradient
       id="swatch70"><stop
         style="stop-color:#d5c1ba;stop-opacity:1;"
         offset="0"
         id="stop70" /></linearGradient><linearGradient
       xlink:href="#swatch26"
       id="linearGradient46"
       gradientUnits="userSpaceOnUse"
       x1="20.191319"
       y1="-122.5799"
       x2="91.399445"
       y2="-122.5799"
       gradientTransform="matrix(-1,0,0,1,123.59104,150.98667)" /><linearGradient
       xlink:href="#swatch70"
       id="linearGradient47"
       gradientUnits="userSpaceOnUse"
       x1="464.4436"
       y1="-53.548092"
       x2="532.70428"
       y2="-53.548092"
       gradientTransform="translate(-1020.3465,587.91693)" /><linearGradient
       xlink:href="#swatch26"
       id="linearGradient35"
       gradientUnits="userSpaceOnUse"
       x1="484.96198"
       y1="-45.641888"
       x2="549.04889"
       y2="-45.641888" /><linearGradient
       xlink:href="#swatch26"
       id="linearGradient36"
       gradientUnits="userSpaceOnUse"
       x1="11.166752"
       y1="-134.25067"
       x2="49.134727"
       y2="-134.25067" /></defs><g
     id="g40"
     inkscape:export-filename="RedLadyBackHairRight.png"
     inkscape:export-xdpi="96"
     inkscape:export-ydpi="96"
     transform="translate(-113.98006,-146.75884)"><g
       id="g35"
       transform="matrix(-0.10967053,0,0,0.10967053,174.19456,157.49929)"
       style="stroke-width:5.69889;stroke-dasharray:none"
       inkscape:export-filename="RedLadyFrontHairRightSmall.svg"
       inkscape:export-xdpi="96"
       inkscape:export-ydpi="96"><path
         id="path10"
         style="display:inline;fill:url(#linearGradient47);stroke:#000000;stroke-width:5.69889;stroke-linecap:round;stroke-linejoin:round;stroke-dasharray:none;paint-order:stroke fill markers"
         d="m -522.62967,501.89935 c -7.39641,0.32463 -14.63744,3.34575 -20.08181,8.36073 -4.34332,3.99059 -7.4723,9.2426 -9.07419,14.90856 -1.98883,7.00679 -1.64186,14.68301 1.11988,21.435 2.3988,5.87875 6.56132,10.99202 11.73059,14.66157 1.87179,1.37292 3.79217,2.68784 5.81355,3.83161 2.08336,1.10312 4.43206,1.66411 6.78366,1.72386 2.7205,0.11885 5.43169,-0.23022 8.12589,-0.56259 2.33702,-0.32919 4.62859,-0.99578 6.76092,-2.01076 3.11332,-1.426 5.95733,-3.44893 8.28762,-5.96141 1.55526,-1.60462 3.10223,-3.23415 4.37109,-5.08094 1.835,-2.54302 3.62499,-5.12886 5.11796,-7.89117 0.82004,-1.50655 1.58115,-3.05778 2.06361,-4.70923 0.82308,-2.70784 1.14163,-5.55227 1.11804,-8.37643 -0.06,-4.00064 -0.96702,-7.9852 -2.64916,-11.61583 -2.55501,-5.60892 -6.70134,-10.50583 -11.89684,-13.83821 -3.69486,-2.37688 -7.91485,-3.90905 -12.25793,-4.54434 -1.76451,-0.25654 -3.55019,-0.36662 -5.33288,-0.33042 z"
         inkscape:export-filename="HeadBack.svg"
         inkscape:export-xdpi="96"
         inkscape:export-ydpi="96"
         transform="translate(1019.8208,-582.40133)" /><path
         style="fill:url(#linearGradient35);fill-opacity:1;stroke:#000000;stroke-width:5.69889;stroke-linecap:round;stroke-linejoin:round;stroke-dasharray:none;paint-order:stroke fill markers"
         d="m 492.33055,-89.099092 13.53227,-5.98544 4.68427,1.82165 6.24567,4.68426 10.14921,5.20472 13.5323,6.76615 3.12282,7.54685 -0.52046,6.766146 3.12282,39.55592 -2.86258,26.5441056 -0.26024,-29.1464676 -2.60236,16.6551236 -11.71065,8.067325 1.56144,-37.4740286 -9.88899,-36.953554 c 0,0 -14.96273,-0.40611 -22.12009,-2.34213 -3.67295,-0.99351 -9.31045,-1.04148 -10.40945,-4.68425 -0.79941,-2.64975 4.42402,-7.02638 4.42402,-7.02638 z"
         id="path32" /><path
         style="fill:#000000;fill-opacity:1;stroke:#000000;stroke-width:2;stroke-linecap:round;stroke-linejoin:round;stroke-dasharray:none;paint-order:stroke fill markers"
         d="m -402.01181,-161.93147 c 0.0426,-0.42403 -0.0528,-0.86535 0,-1.2881 0.0393,-0.31416 0.12273,-0.61364 0.18401,-0.92007 0.0716,-0.35815 0.0537,-1.3725 0,-1.74815 -0.1357,-0.94994 -0.35396,-1.89753 -0.46003,-2.85223 -0.0102,-0.0915 0.0151,-0.18526 0,-0.27602 -0.054,-0.3239 -0.24185,-0.62566 -0.36803,-0.92007 -0.0714,-0.16666 -0.0553,-0.60732 -0.18402,-0.73606 -0.0434,-0.0434 -0.14721,0.0491 -0.18401,0 -0.0759,-0.10116 -0.0269,-0.2596 -0.092,-0.36803 -0.0353,-0.0588 -0.14287,-0.0371 -0.18402,-0.092 -0.0582,-0.0776 -0.0338,-0.19844 -0.092,-0.27603 -0.0411,-0.0549 -0.14597,-0.0349 -0.18401,-0.092 -0.12355,-0.18531 0.0817,-0.19437 -0.092,-0.36803"
         id="path34"
         transform="matrix(1.1397775,0,0,1.1397775,944.22175,100.6324)" /><circle
         id="circle34"
         style="fill:#000000;stroke:#000000;stroke-width:0.264583;stroke-dasharray:none"
         cx="-402.28784"
         cy="-162.02347"
         r="0.11579812"
         transform="matrix(1.1397775,0,0,1.1397775,944.22175,100.6324)" /><path
         style="fill:url(#linearGradient36);fill-opacity:1;stroke:#000000;stroke-width:5.69889;stroke-linecap:round;stroke-linejoin:round;stroke-dasharray:none;paint-order:stroke fill markers"
         d="m 42.121714,-177.05897 -15.09371,18.21654 -2.34212,10.14921 0.26024,28.10553 -4.42402,24.46221 2.60237,12.231108 -5.20473,-8.067325 -3.90355,-60.114593 6.50591,-18.47678 17.69605,-14.05276 8.06733,1.82166 z"
         id="path35"
         transform="translate(441.36081,97.848858)" /></g><path
       style="fill:url(#linearGradient46);fill-opacity:1;stroke:#000000;stroke-width:0.625;stroke-linecap:round;stroke-linejoin:round;stroke-dasharray:none;paint-order:stroke fill markers"
       d="m 123.27854,151.74315 -0.28254,4.15729 -0.48434,-1.97774 -0.0404,2.09883 -2.78498,-0.12109 -0.3229,-1.6952 -0.12108,1.65484 -2.0181,0.0404 -0.88797,-0.52471 -0.24217,-4.07656 z"
       id="path5"
       inkscape:export-filename="RedLadyBackHairRightSmall.svg"
       inkscape:export-xdpi="96"
       inkscape:export-ydpi="96" /><path
       style="fill:#953535;stroke:none;stroke-width:5.10833;stroke-linecap:round;stroke-linejoin:round;paint-order:stroke fill markers"
       d="m 115.1577,150.12347 3.81957,-2.33653 1.62333,0.23134 0.66842,0.25447 2.29174,2.47534 0.28647,1.82759 0.0955,3.40069 -0.57294,-0.80969 -0.32797,-0.25795 -0.24183,-0.9492 -3.28716,0.11348 -3.01627,1.40328 -1.62411,-1.16101 z"
       id="path6" /><path
       style="fill:#953535;stroke:none;stroke-width:0.499999;stroke-linecap:round;stroke-linejoin:round;stroke-dasharray:none;paint-order:stroke fill markers"
       d="m 116.12314,155.61634 -0.006,-0.709 -0.17363,0.0145 0.0351,0.70487 z"
       id="path40" /><path
       style="fill:#953535;stroke:none;stroke-width:0.499999;stroke-linecap:round;stroke-linejoin:round;stroke-dasharray:none;paint-order:stroke fill markers"
       d="m 122.92066,155.58637 0.68648,2.23461 0.1754,-3.58976 -0.70158,-0.0585 z"
       id="path41" /></g></svg>
