<?xml version="1.0" encoding="UTF-8" standalone="no"?>
<!-- Created with Inkscape (http://www.inkscape.org/) -->

<svg
   width="27.42293mm"
   height="24.562342mm"
   viewBox="0 0 27.42293 24.562342"
   version="1.1"
   id="svg1"
   xml:space="preserve"
   xmlns="http://www.w3.org/2000/svg"
   xmlns:svg="http://www.w3.org/2000/svg"><defs
     id="defs1" /><g
     id="g55"
     transform="translate(-116.25484,-86.88136)"><path
       d="m 128.59026,87.381399 c -1.81717,1.5e-4 -2.94984,1.040845 -3.46486,2.966197 -0.53099,-0.265312 -1.62155,-0.402547 -2.20431,-0.402559 -2.26495,10e-7 -3.58655,2.028594 -3.58655,4.530989 7e-5,0.40991 0.0505,0.817915 0.14986,1.212846 -1.58814,0.262624 -2.72962,1.401288 -2.72955,2.722831 -8e-5,1.049117 0.72453,2.008787 1.87328,2.480987 0.043,0.0176 0.0864,0.0345 0.13022,0.0506 -0.0407,0.0376 -0.0806,0.0762 -0.11989,0.11575 -0.81826,0.8229 -1.28827,2.01689 -1.28829,3.27268 0,2.39279 1.67322,4.33254 3.73724,4.33254 0.49841,-4e-5 0.99178,-0.11565 1.45107,-0.34003 2.09802,1.68851 4.79224,2.61939 7.58145,2.61947 3.36127,8e-5 6.27388,-0.74212 8.45992,-3.08785 0.14946,0.0182 0.58036,-0.58065 0.73073,-0.58064 2.26494,0 3.86718,-2.02859 3.86719,-4.53097 3e-5,-1.40441 -0.35552,-2.72945 -1.36191,-3.587386 0.39464,-0.712075 0.46321,-2.138822 0.46326,-2.973785 3e-5,-2.474589 -1.65663,-3.883459 -3.89613,-3.922434 -0.0559,-1.988267 -1.00798,-3.478764 -3.08656,-3.478848 -0.71,1.9e-5 -2.15442,0.09503 -2.75908,0.451125 -0.74917,-1.326342 -2.53202,-1.851635 -3.94709,-1.851553 z"
       style="fill:#112b00;stroke:#000000;stroke-width:1;stroke-linecap:round;stroke-linejoin:round;stroke-dasharray:none;stroke-opacity:1;paint-order:stroke fill markers"
       id="path48" /><path
       style="fill:none;fill-opacity:1;stroke:#000000;stroke-width:0.499999;stroke-linecap:round;stroke-linejoin:round;stroke-dasharray:none;stroke-opacity:1;paint-order:stroke fill markers"
       d="m 122.07339,100.426 c -0.0609,-0.679792 -0.12171,-1.359583 0.14229,-2.096394 0.264,-0.736811 1.09009,-1.850468 1.91009,-2.195556 0.82,-0.345088 2.48256,-0.330557 3.36451,0.09939 0.88195,0.429947 1.25417,1.277674 1.62639,2.125407"
       id="path51"
       transform="translate(0.56126601,-2.4321527)" /><path
       style="fill:none;fill-opacity:1;stroke:#000000;stroke-width:0.499999;stroke-linecap:round;stroke-linejoin:round;stroke-dasharray:none;stroke-opacity:1;paint-order:stroke fill markers"
       d="m 122.07339,100.426 c -0.0609,-0.679792 -0.12171,-1.359583 0.14229,-2.096394 0.264,-0.736811 1.07034,-1.823842 1.65706,-2.184368 0.58671,-0.360527 1.39477,-0.353464 2.13164,-0.347023 0.73687,0.0064 1.39175,0.01216 1.87131,0.419328 0.47956,0.407164 0.86876,1.293571 1.24098,2.141304"
       id="path52"
       transform="matrix(-1,0,0,1,254.4698,6.8259827)" /><path
       style="fill:none;fill-opacity:1;stroke:#000000;stroke-width:0.499999;stroke-linecap:round;stroke-linejoin:round;stroke-dasharray:none;stroke-opacity:1;paint-order:stroke fill markers"
       d="m 123.47656,99.677645 c -0.21676,-0.710973 -0.43353,-1.421947 -0.37545,-2.071693 0.0581,-0.649747 0.44558,-1.334792 0.90196,-1.578016 0.45638,-0.243225 1.26444,-0.236162 2.00131,-0.229721 0.73687,0.0064 1.39175,0.01216 1.87131,0.419328 0.47956,0.407164 0.86876,1.293571 1.24098,2.141304"
       id="path53"
       transform="matrix(-1,0,0,1,262.04689,1.6810443)" /></g></svg>
