<?xml version="1.0" encoding="UTF-8" standalone="no"?>
<!-- Created with Inkscape (http://www.inkscape.org/) -->

<svg
   width="10.585545mm"
   height="12.583228mm"
   viewBox="0 0 10.585545 12.583228"
   version="1.1"
   id="svg1"
   xml:space="preserve"
   xmlns:xlink="http://www.w3.org/1999/xlink"
   xmlns="http://www.w3.org/2000/svg"
   xmlns:svg="http://www.w3.org/2000/svg"><defs
     id="defs1"><linearGradient
       id="swatch26"><stop
         style="stop-color:#953535;stop-opacity:1;"
         offset="0"
         id="stop26" /></linearGradient><linearGradient
       xlink:href="#swatch26"
       id="linearGradient35"
       gradientUnits="userSpaceOnUse"
       x1="484.96198"
       y1="-45.641888"
       x2="549.04889"
       y2="-45.641888" /><linearGradient
       xlink:href="#swatch26"
       id="linearGradient36"
       gradientUnits="userSpaceOnUse"
       x1="11.166752"
       y1="-134.25067"
       x2="49.134727"
       y2="-134.25067" /></defs><g
     id="layer1"
     transform="translate(-111.96324,-143.57094)"><g
       id="g35"
       transform="matrix(-0.10967053,0,0,0.10967053,172.17773,154.3114)"
       style="stroke-width:5.69889;stroke-dasharray:none"><path
         style="fill:url(#linearGradient35);fill-opacity:1;stroke:#000000;stroke-width:5.69889;stroke-linecap:round;stroke-linejoin:round;stroke-dasharray:none;paint-order:stroke fill markers"
         d="m 492.33055,-89.099092 13.53227,-5.98544 4.68427,1.82165 6.24567,4.68426 10.14921,5.20472 13.5323,6.76615 3.12282,7.54685 -0.52046,6.766146 3.12282,39.55592 -2.86258,26.5441056 -0.26024,-29.1464676 -2.60236,16.6551236 -11.71065,8.067325 1.56144,-37.4740286 -9.88899,-36.953554 c 0,0 -14.96273,-0.40611 -22.12009,-2.34213 -3.67295,-0.99351 -9.31045,-1.04148 -10.40945,-4.68425 -0.79941,-2.64975 4.42402,-7.02638 4.42402,-7.02638 z"
         id="path32" /><path
         style="fill:#000000;fill-opacity:1;stroke:#000000;stroke-width:2;stroke-linecap:round;stroke-linejoin:round;stroke-dasharray:none;paint-order:stroke fill markers"
         d="m -402.01181,-161.93147 c 0.0426,-0.42403 -0.0528,-0.86535 0,-1.2881 0.0393,-0.31416 0.12273,-0.61364 0.18401,-0.92007 0.0716,-0.35815 0.0537,-1.3725 0,-1.74815 -0.1357,-0.94994 -0.35396,-1.89753 -0.46003,-2.85223 -0.0102,-0.0915 0.0151,-0.18526 0,-0.27602 -0.054,-0.3239 -0.24185,-0.62566 -0.36803,-0.92007 -0.0714,-0.16666 -0.0553,-0.60732 -0.18402,-0.73606 -0.0434,-0.0434 -0.14721,0.0491 -0.18401,0 -0.0759,-0.10116 -0.0269,-0.2596 -0.092,-0.36803 -0.0353,-0.0588 -0.14287,-0.0371 -0.18402,-0.092 -0.0582,-0.0776 -0.0338,-0.19844 -0.092,-0.27603 -0.0411,-0.0549 -0.14597,-0.0349 -0.18401,-0.092 -0.12355,-0.18531 0.0817,-0.19437 -0.092,-0.36803"
         id="path34"
         transform="matrix(1.1397775,0,0,1.1397775,944.22175,100.6324)" /><circle
         id="circle34"
         style="fill:#000000;stroke:#000000;stroke-width:0.264583;stroke-dasharray:none"
         cx="-402.28784"
         cy="-162.02347"
         r="0.11579812"
         transform="matrix(1.1397775,0,0,1.1397775,944.22175,100.6324)" /><path
         style="fill:url(#linearGradient36);fill-opacity:1;stroke:#000000;stroke-width:5.69889;stroke-linecap:round;stroke-linejoin:round;stroke-dasharray:none;paint-order:stroke fill markers"
         d="m 42.121714,-177.05897 -15.09371,18.21654 -2.34212,10.14921 0.26024,28.10553 -4.42402,24.46221 2.60237,12.231108 -5.20473,-8.067325 -3.90355,-60.114593 6.50591,-18.47678 17.69605,-14.05276 8.06733,1.82166 z"
         id="path35"
         transform="translate(441.36081,97.848858)" /></g></g></svg>
