<?xml version="1.0" encoding="UTF-8" standalone="no"?>
<!-- Created with Inkscape (http://www.inkscape.org/) -->

<svg
   width="7.6865463mm"
   height="8.4198837mm"
   viewBox="0 0 7.6865463 8.4198837"
   version="1.1"
   id="svg1"
   xml:space="preserve"
   xmlns:xlink="http://www.w3.org/1999/xlink"
   xmlns="http://www.w3.org/2000/svg"
   xmlns:svg="http://www.w3.org/2000/svg"><defs
     id="defs1"><linearGradient
       id="swatch26"><stop
         style="stop-color:#953535;stop-opacity:1;"
         offset="0"
         id="stop26" /></linearGradient><linearGradient
       id="swatch24"><stop
         style="stop-color:#130a0a;stop-opacity:1;"
         offset="0"
         id="stop24" /></linearGradient><linearGradient
       id="swatch17"><stop
         style="stop-color:#953535;stop-opacity:1;"
         offset="0"
         id="stop17" /></linearGradient><linearGradient
       id="swatch16"><stop
         style="stop-color:#953535;stop-opacity:1;"
         offset="0"
         id="stop16" /></linearGradient><linearGradient
       id="swatch14"><stop
         style="stop-color:#953535;stop-opacity:1;"
         offset="0"
         id="stop14" /></linearGradient><linearGradient
       id="swatch10"><stop
         style="stop-color:#953535;stop-opacity:1;"
         offset="0"
         id="stop10" /></linearGradient><linearGradient
       id="swatch9"><stop
         style="stop-color:#953535;stop-opacity:1;"
         offset="0"
         id="stop9" /></linearGradient><linearGradient
       id="swatch88"><stop
         style="stop-color:#ce1b14;stop-opacity:1;"
         offset="0"
         id="stop88" /></linearGradient><linearGradient
       id="swatch85"><stop
         style="stop-color:#19202d;stop-opacity:1;"
         offset="0"
         id="stop85" /></linearGradient><linearGradient
       id="swatch82"><stop
         style="stop-color:#866b65;stop-opacity:1;"
         offset="0"
         id="stop82" /></linearGradient><linearGradient
       id="swatch71"><stop
         style="stop-color:#c6fdde;stop-opacity:1;"
         offset="0"
         id="stop71" /></linearGradient><linearGradient
       id="swatch70"><stop
         style="stop-color:#d5c1ba;stop-opacity:1;"
         offset="0"
         id="stop70" /></linearGradient><linearGradient
       id="swatch69"><stop
         style="stop-color:#5c4c4c;stop-opacity:1;"
         offset="0"
         id="stop69" /></linearGradient><linearGradient
       id="swatch68"><stop
         style="stop-color:#ffffe0;stop-opacity:1;"
         offset="0"
         id="stop68" /></linearGradient><linearGradient
       id="swatch66"><stop
         style="stop-color:#953535;stop-opacity:1;"
         offset="0"
         id="stop66" /></linearGradient><linearGradient
       id="swatch2"><stop
         style="stop-color:#000000;stop-opacity:1;"
         offset="0"
         id="stop2" /></linearGradient><linearGradient
       xlink:href="#swatch69"
       id="linearGradient40"
       gradientUnits="userSpaceOnUse"
       x1="22.810572"
       y1="-77.835358"
       x2="84.302948"
       y2="-77.835358" /></defs><g
     id="layer1"
     transform="translate(-348.57217,-156.40856)"><g
       id="g34"
       transform="translate(100.12353,241.08388)"><g
         id="g20"
         transform="translate(28.479575,10.929926)"><g
           id="g25"
           transform="matrix(0.125,0,0,0.125,217.11773,-81.635664)"><path
             style="fill:url(#linearGradient40);stroke:#000000;stroke-width:4.99999;stroke-linecap:round;stroke-linejoin:round;stroke-dasharray:none;paint-order:stroke fill markers"
             d="m 46.937714,-106.75413 c 1.457393,-0.47696 2.501432,-1.20354 4.019475,-1.4204 2.428874,-0.34698 4.515823,-1.22446 6.963725,-1.05833 1.358802,0.0922 4.709777,1.08121 4.709777,1.08121 9.19982,0.50964 4.113007,8.707087 1.506948,13.197348 l -2.607798,13.367233 8.588267,8.714549 c 0,0 6.15551,6.375466 8.740711,9.752786 0.897895,1.173015 2.94423,3.31227 2.94423,3.31227 0,0 -4.69794,4.86466 -7.54459,6.62454 -3.042185,1.880765 -6.483724,3.116536 -9.93683,4.04832 -5.083622,1.371761 -10.380288,2.425713 -15.64124,2.20818 -4.713041,-0.194878 -9.519771,-1.148131 -13.80111,-3.12825 -3.618703,-1.67365 -9.56879,-7.17658 -9.56879,-7.17658 0,0 3.388834,-5.061855 5.15241,-7.54461 2.870181,-4.04063 9.752794,-10.304832 9.752794,-10.304832 0,0 5.105347,-3.794792 6.443247,-7.563105 0.713873,-2.010687 -1.106821,-11.390428 -1.106821,-11.390428 v -1.472118 l -3.69123,-6.338063 c 0,0 -0.214418,-1.87139 2.21911,-3.96677 1.088112,-0.93692 1.493041,-0.49634 2.857715,-0.94295 z"
             id="path25" /></g></g></g></g></svg>
