<?xml version="1.0" encoding="UTF-8" standalone="no"?>
<!-- Created with Inkscape (http://www.inkscape.org/) -->

<svg
   width="21.535103mm"
   height="17.462702mm"
   viewBox="0 0 21.535103 17.462702"
   version="1.1"
   id="svg1"
   xml:space="preserve"
   xmlns="http://www.w3.org/2000/svg"
   xmlns:svg="http://www.w3.org/2000/svg"><defs
     id="defs1" /><g
     id="g92"
     transform="translate(-145.6939,-36.715351)"><g
       id="g91"
       transform="matrix(0.46312924,0,0,0.46312924,107.64908,27.207689)"
       style="stroke-width:2.15922;stroke-dasharray:none"><path
         d="m 110.26091,21.608788 c 3.19655,-1e-6 6.01072,2.134084 6.9112,5.241024 0.0661,-0.0018 0.13228,-0.0027 0.19844,-0.0026 3.93111,1.61e-4 7.13605,3.193151 7.20162,7.174756 1.88024,1.371141 2.99464,3.57474 2.99465,5.921602 -3e-5,3.070808 -1.89809,5.812943 -4.74803,6.85953 0.17104,0.629975 0.25777,1.280366 0.25787,1.933732 -1.4e-4,4.029725 -3.22512,7.296344 -7.20318,7.296195 -1.22487,2e-6 -2.4295,-0.316409 -3.50004,-0.919324 -0.39235,-0.220938 -0.76345,-0.478546 -1.10846,-0.769462 -1.36483,1.773976 -3.46103,2.811207 -5.6813,2.811198 -1.59055,-1.91e-4 -3.1363,-0.533674 -4.39611,-1.51722 -1.18196,0.922839 -2.6177,1.451014 -4.1088,1.511536 -0.0961,0.0038 -0.19221,0.0057 -0.28835,0.0057 -3.65446,-5.2e-5 -6.72975,-2.772334 -7.15409,-6.449218 -2.01634,-1.350989 -3.22917,-3.636523 -3.22926,-6.085417 8e-5,-0.39539 0.0319,-0.79012 0.0951,-1.18029 -2.04295,-1.346213 -3.27531,-3.647612 -3.27525,-6.116422 1.4e-4,-4.02952 3.2248,-7.296054 7.20266,-7.296196 0.79583,-1.5e-5 1.58616,0.133569 2.33887,0.395325 -1e-5,-0.0071 -1e-5,-0.01413 0,-0.02119 -1.4e-4,-4.029722 3.2246,-7.296571 7.20266,-7.296713 1.60795,-6e-6 3.16966,0.545003 4.43642,1.548226 1.35275,-1.911146 3.53189,-3.044677 5.85339,-3.044775 z"
         style="fill:#2d5016;stroke:#000000;stroke-width:2.15922;stroke-linecap:round;stroke-linejoin:round;stroke-dasharray:none;paint-order:stroke fill markers"
         id="path88" /><path
         d="m 104.9156,34.842422 c -0.20875,-0.550786 -0.31574,-1.134907 -0.31574,-1.723926 0,-2.686478 2.17782,-4.864299 4.8643,-4.864302 h 5e-5 c 3.84292,0 4.95957,2.130188 4.8643,4.864302"
         style="fill:none;stroke:#000000;stroke-width:1.07961;stroke-linecap:round;stroke-linejoin:round;stroke-dasharray:none;paint-order:stroke fill markers"
         id="path89" /><path
         d="m 117.36596,48.869459 c 0.20875,-0.550786 0.31574,-1.134907 0.31574,-1.723926 0,-3.679151 -2.17782,-4.864302 -4.8643,-4.864302 h -5e-5 c -2.68648,3e-6 -4.8643,2.177824 -4.8643,4.864302"
         style="fill:none;stroke:#000000;stroke-width:1.07961;stroke-linecap:round;stroke-linejoin:round;stroke-dasharray:none;paint-order:stroke fill markers"
         id="path90" /><path
         d="m 100.0706,44.40955 c 0.20875,-0.550786 0.31574,-1.134907 0.31574,-1.723926 0,-2.686478 -2.17782,-4.864299 -4.8643,-4.864302 h -5e-5 c -4.843062,0 -4.925612,2.204102 -4.864292,4.864302"
         style="fill:none;stroke:#000000;stroke-width:1.07961;stroke-linecap:round;stroke-linejoin:round;stroke-dasharray:none;paint-order:stroke fill markers"
         id="path91" /></g></g></svg>
